<?xml version="1.0" standalone="no"?>
<!DOCTYPE svg PUBLIC "-//W3C//DTD SVG 20010904//EN"
 "http://www.w3.org/TR/2001/REC-SVG-20010904/DTD/svg10.dtd">
<svg version="1.0" xmlns="http://www.w3.org/2000/svg"
 width="700.000000pt" height="700.000000pt" viewBox="0 0 700.000000 700.000000"
 preserveAspectRatio="xMidYMid meet">
<metadata>
Created by potrace 1.14, written by Peter Selinger 2001-2017
</metadata>
<g transform="translate(0.000000,700.000000) scale(0.100000,-0.100000)"
fill="#000000" stroke="none">
<path d="M749 6996 c-2 -2 -22 -6 -44 -9 -270 -39 -542 -261 -644 -527 -64
-164 -60 53 -58 -2980 2 -1521 6 -2778 10 -2793 23 -86 63 -190 94 -245 125
-227 353 -388 608 -430 52 -9 5504 -9 5570 0 71 9 199 53 272 94 182 101 328
273 393 462 52 152 49 -13 49 2932 0 2663 0 2737 -19 2822 -72 326 -308 569
-633 653 l-92 24 -2751 0 c-1513 1 -2753 -1 -2755 -3z"/>
</g>
</svg>
